:SAMPLES-PER-SECOND 30
:FULLY-SPECIFIED
:DEGREES
139
root  7.19747 17.93 -4.64938 -104.024 77.1013 -77.5258
RightUpLeg  -79.3886 -5.40341 15.419
RightLeg  94.7552 10.9015 1.76344
RightFoot  -18.0328 0.0911081 2.0043
RightToes  2.85217e-009 -3.18055e-015 8.94531e-016
Spine  63.3085 -3.15096 1.94227
Spine1  15.1847 -0.522724 -0.844015
HEad  -22.3303 2.98532 9.6879
LeftShoulder1  0 -2.69403e-036 -1.28585e-037
LeftArm  -8.05318 -54.2298 -69.1946
LeftForeArm  -136.327 -49.8352 168.678
LeftHand  0.685319 6.00178 10.3201
RightShoulder  -2.48481e-017 0 -8.08114e-019
RightArm  -2.20976 36.2752 66.8333
RightForeArm  -94.7356 46.4751 -154.678
RightHand  4.00618 -16.6627 -24.856
LeftUpLeg  -53.4714 -3.4923 6.93431
LeftLeg  133.607 -13.8823 -1.17311
LeftFoot  -33.4798 -0.0477726 0.293195
LeftToes  -3.29237e-010 -4.9359e-011 -7.59376e-011
140
root  7.88375 17.0977 -4.37113 -108.537 77.3863 -81.7411
RightUpLeg  -79.8114 -4.14959 13.6123
RightLeg  94.9824 11.2388 -1.02421
RightFoot  -17.1358 0.0673913 1.78304
RightToes  2.85217e-009 -3.18055e-015 8.94531e-016
Spine  62.3696 -3.30541 2.52381
Spine1  16.3069 -0.291852 -1.07875
HEad  -22.6875 2.5573 10.942
LeftShoulder1  0 -2.69403e-036 -1.28585e-037
LeftArm  -7.16823 -54.0716 -70.3772
LeftForeArm  -136.762 -49.8905 168.669
LeftHand  0.743075 6.22486 9.75972
RightShoulder  -2.48481e-017 0 -8.08114e-019
RightArm  -2.66091 35.8837 66.5115
RightForeArm  -94.7009 46.3974 -154.778
RightHand  4.06511 -16.7838 -25.032
LeftUpLeg  -53.6795 -4.02418 7.06039
LeftLeg  137.613 -13.8045 -1.38466
LeftFoot  -33.7516 -0.278685 -0.993884
LeftToes  -3.29237e-010 -4.9359e-011 -7.59376e-011
141
root  8.56812 16.3728 -4.05835 -113.137 78.3075 -85.4029
RightUpLeg  -79.5941 -3.11267 11.7187
RightLeg  95.5665 11.6574 -3.8172
RightFoot  -12.8651 -0.00359884 2.01207
RightToes  2.85217e-009 -3.18055e-015 8.94531e-016
Spine  62.4448 -2.90104 2.39826
Spine1  17.1657 0.0667829 -1.08523
HEad  -23.045 2.20115 11.4401
LeftShoulder1  0 -2.69403e-036 -1.28585e-037
LeftArm  -6.71981 -53.8195 -70.9156
LeftForeArm  -137.119 -49.9134 168.678
LeftHand  0.79378 6.42374 9.15079
RightShoulder  -2.48481e-017 0 -8.08114e-019
RightArm  -2.8564 35.9452 66.4379
RightForeArm  -94.0033 46.4631 -154.642
RightHand  4.12629 -16.9145 -25.1984
LeftUpLeg  -52.449 -4.36383 7.3183
LeftLeg  141.194 -12.6139 -2.41273
LeftFoot  -33.7897 -0.462869 -2.0151
LeftToes  -3.29237e-010 -4.9359e-011 -7.59376e-011
142
root  9.34304 15.7619 -3.66407 -119.889 79.9936 -90.8314
RightUpLeg  -79.762 -2.57628 9.95311
RightLeg  97.669 12.1474 -5.46451
RightFoot  -7.83766 -0.0719355 1.70628
RightToes  2.85217e-009 -3.18055e-015 8.94531e-016
Spine  63.086 -1.86996 1.12895
Spine1  17.6613 0.43494 -0.989006
HEad  -23.3388 1.90492 11.5898
LeftShoulder1  0 -2.69403e-036 -1.28585e-037
LeftArm  -6.5329 -53.7617 -70.9156
LeftForeArm  -137.789 -49.9198 168.724
LeftHand  0.851061 6.67076 8.76153
RightShoulder  -2.48481e-017 0 -8.08114e-019
RightArm  -3.14927 36.2887 66.5913
RightForeArm  -92.8382 46.6532 -154.307
RightHand  4.06913 -16.7016 -25.3497
LeftUpLeg  -49.5118 -4.48874 8.03507
LeftLeg  144.299 -9.73716 -4.36297
LeftFoot  -34.0672 -0.44488 -1.88423
LeftToes  -3.29237e-010 -4.9359e-011 -7.59376e-011
143
root  10.219 15.2977 -3.18398 -129.211 82.0699 -99.1962
RightUpLeg  -80.61 -1.82313 8.52493
RightLeg  101.101 12.7305 -6.15322
RightFoot  -5.58714 -0.0534143 0.822698
RightToes  2.85217e-009 -3.18055e-015 8.94531e-016
Spine  63.6318 -0.383196 -0.754034
Spine1  17.6901 0.933118 -1.03264
HEad  -23.5815 1.64818 11.9802
LeftShoulder1  0 -2.69403e-036 -1.28585e-037
LeftArm  -6.13376 -53.9368 -71.006
LeftForeArm  -138.418 -50.0396 168.681
LeftHand  0.882277 6.81357 8.83778
RightShoulder  -2.48481e-017 0 -8.08114e-019
RightArm  -3.65268 36.4867 66.8582
RightForeArm  -92.1825 46.6802 -154.225
RightHand  3.91253 -16.2681 -25.2542
LeftUpLeg  -45.5103 -4.54596 9.95722
LeftLeg  146.615 -4.95088 -7.1913
LeftFoot  -35.0227 -0.245935 -0.755203
LeftToes  -3.29237e-010 -4.9359e-011 -7.59376e-011
144
root  11.0956 14.938 -2.96599 -149.457 80.8095 -120.741
RightUpLeg  -83.2736 -4.95547 6.7659
RightLeg  105.119 13.0506 -5.5676
RightFoot  -6.14475 -0.000555981 0.016208
RightToes  2.85217e-009 -3.18055e-015 8.94531e-016
Spine  62.683 -2.56008 -0.169144
Spine1  17.691 -0.518027 -2.28588
HEad  -23.9576 1.28801 12.4941
LeftShoulder1  0 -2.69403e-036 -1.28585e-037
LeftArm  -5.46686 -54.2277 -71.5361
LeftForeArm  -137.371 -50.5415 168.221
LeftHand  0.765862 6.32824 9.70276
RightShoulder  -2.48481e-017 0 -8.08114e-019
RightArm  -4.18991 36.3923 66.842
RightForeArm  -92.5059 46.3967 -154.626
RightHand  3.77102 -15.9816 -24.7842
LeftUpLeg  -45.429 -7.13021 10.2012
LeftLeg  148.514 -1.69681 -8.70812
LeftFoot  -34.9026 -0.134438 -0.162542
LeftToes  -3.29237e-010 -4.9359e-011 -7.59376e-011
